<svg width="63" height="63" viewBox="0 0 63 63" fill="none" xmlns="http://www.w3.org/2000/svg">
<path d="M58.336 24.8653L58.9857 27.7594C59.0841 28.1984 59.0841 28.6335 59.0015 29.043C59.0759 29.3338 59.0829 29.6377 59.0218 29.9316C58.9608 30.2255 58.8333 30.5016 58.6493 30.7387C58.4652 30.9757 58.2293 31.1676 57.9597 31.2996C57.6901 31.4315 57.3939 31.5001 57.0937 31.5H52.6542L49.7345 27.6078V27.6038C49.2674 26.9788 48.6606 26.4715 47.9626 26.1225C47.2646 25.7735 46.4947 25.5924 45.7144 25.5938H45.2812V22.2666C45.2812 20.8451 44.1236 19.6875 42.7022 19.6875H39.9853C38.5639 19.6875 37.4062 20.8451 37.4062 22.2666V25.5741H25.5937V22.2666C25.5937 20.8451 24.4361 19.6875 23.0147 19.6875H20.2978C18.8764 19.6875 17.7187 20.8451 17.7187 22.2666V25.5938H17.2856C15.6949 25.5938 14.2085 26.3438 13.2497 27.6216L10.3438 31.5H5.90623C5.60607 31.5001 5.30987 31.4315 5.04026 31.2996C4.77066 31.1676 4.5348 30.9757 4.35072 30.7387C4.16663 30.5016 4.0392 30.2255 3.97815 29.9316C3.91711 29.6377 3.92408 29.3338 3.99852 29.043C3.91233 28.6189 3.9177 28.1813 4.01427 27.7594L4.64427 24.8653C5.34609 21.7225 7.09723 18.9125 9.60933 16.8978C12.1214 14.8831 15.2447 13.7839 18.4649 13.7812H44.5351C47.7537 13.7816 50.8758 14.8803 53.3852 16.8957C55.8947 18.9111 57.6412 21.7226 58.336 24.8653Z" fill="#041646"/>
<path d="M48.1556 28.7831L55.3613 38.3906C57.7641 41.5863 59.0631 45.4764 59.0625 49.4747V55.9913C59.0625 57.6844 57.6844 59.0625 55.9913 59.0625H7.00875C5.31562 59.0625 3.9375 57.6844 3.9375 55.9913V49.4747C3.9375 45.4781 5.23688 41.58 7.63875 38.3906L14.8247 28.8028C15.4153 28.0153 16.3209 27.5625 17.2856 27.5625H19.0772C19.4119 27.5625 19.6875 27.2869 19.6875 26.9522V22.2666C19.6875 21.9319 19.9631 21.6562 20.2978 21.6562H23.0147C23.3494 21.6562 23.625 21.9319 23.625 22.2666V26.9522C23.625 27.2869 23.9006 27.5625 24.2353 27.5625H38.7647C39.0994 27.5625 39.375 27.2869 39.375 26.9522V22.2666C39.375 21.9319 39.6506 21.6562 39.9853 21.6562H42.7022C43.0369 21.6562 43.3125 21.9319 43.3125 22.2666V26.9522C43.3125 27.2869 43.5881 27.5625 43.9228 27.5625H45.7144C46.6791 27.5625 47.5847 28.0153 48.1556 28.7831ZM26.9679 37.4062C27.3026 37.4062 27.5802 37.1306 27.5605 36.792V34.083C27.56 33.9206 27.4954 33.7649 27.3807 33.6499C27.2661 33.5349 27.1107 33.4698 26.9482 33.4688H24.2373C23.9026 33.4688 23.625 33.7444 23.625 34.083V36.792C23.625 37.1287 23.9006 37.4062 24.2589 37.4062H26.9679ZM32.8742 37.4062C32.9541 37.4068 33.0333 37.3912 33.107 37.3603C33.1807 37.3294 33.2474 37.2838 33.303 37.2264C33.3586 37.169 33.4019 37.1009 33.4304 37.0262C33.4589 36.9515 33.4719 36.8719 33.4688 36.792V34.083C33.4677 33.9204 33.4027 33.7648 33.2877 33.6498C33.1727 33.5348 33.0171 33.4698 32.8545 33.4688H30.1455C29.9828 33.4693 29.8268 33.5342 29.7117 33.6492C29.5967 33.7643 29.5318 33.9203 29.5312 34.083V36.792C29.5312 37.1287 29.8069 37.4062 30.1652 37.4062H32.8742ZM36.0695 37.4062H38.7804C38.8604 37.4068 38.9396 37.3912 39.0133 37.3603C39.087 37.3294 39.1536 37.2838 39.2092 37.2264C39.2648 37.169 39.3082 37.1009 39.3367 37.0262C39.3652 36.9515 39.3782 36.8719 39.375 36.792V34.083C39.374 33.9204 39.3089 33.7648 39.1939 33.6498C39.079 33.5348 38.9233 33.4698 38.7607 33.4688H36.0498C35.7151 33.4688 35.4375 33.7444 35.4375 34.083V36.792C35.4375 37.1287 35.7131 37.4062 36.0714 37.4062H36.0695ZM26.9679 43.3125C27.3026 43.3125 27.5802 43.0369 27.5605 42.6982V39.9893C27.56 39.8268 27.4954 39.6712 27.3807 39.5562C27.2661 39.4411 27.1107 39.376 26.9482 39.375H24.2373C23.9026 39.375 23.625 39.6506 23.625 39.9893V42.6982C23.625 43.0349 23.9006 43.3125 24.2589 43.3125H26.9679ZM30.1632 43.3125H32.8742C32.9541 43.3131 33.0333 43.2975 33.107 43.2666C33.1807 43.2356 33.2474 43.1901 33.303 43.1327C33.3586 43.0752 33.4019 43.0071 33.4304 42.9325C33.4589 42.8578 33.4719 42.7781 33.4688 42.6982V39.9893C33.4677 39.8267 33.4027 39.671 33.2877 39.5561C33.1727 39.4411 33.0171 39.376 32.8545 39.375H30.1455C29.9828 39.3755 29.8268 39.4404 29.7117 39.5555C29.5967 39.6706 29.5318 39.8265 29.5312 39.9893V42.6982C29.5312 43.0349 29.8049 43.3125 30.1632 43.3125ZM38.7804 43.3125C38.8604 43.3131 38.9396 43.2975 39.0133 43.2666C39.087 43.2356 39.1536 43.1901 39.2092 43.1327C39.2648 43.0752 39.3082 43.0071 39.3367 42.9325C39.3652 42.8578 39.3782 42.7781 39.375 42.6982V39.9893C39.374 39.8267 39.3089 39.671 39.1939 39.5561C39.079 39.4411 38.9233 39.376 38.7607 39.375H36.0498C35.7151 39.375 35.4375 39.6506 35.4375 39.9893V42.6982C35.4375 43.0349 35.7131 43.3125 36.0714 43.3125H38.7804ZM24.257 49.2188H26.9679C27.3026 49.2188 27.5802 48.9431 27.5605 48.6045V45.8955C27.56 45.7331 27.4954 45.5774 27.3807 45.4624C27.2661 45.3474 27.1107 45.2823 26.9482 45.2812H24.2373C23.9026 45.2812 23.625 45.5569 23.625 45.8955V48.6045C23.625 48.9412 23.8987 49.2188 24.257 49.2188ZM32.8742 49.2188C32.9541 49.2193 33.0333 49.2037 33.107 49.1728C33.1807 49.1419 33.2474 49.0963 33.303 49.0389C33.3586 48.9815 33.4019 48.9134 33.4304 48.8387C33.4589 48.764 33.4719 48.6844 33.4688 48.6045V45.8955C33.4677 45.7329 33.4027 45.5773 33.2877 45.4623C33.1727 45.3473 33.0171 45.2823 32.8545 45.2812H30.1455C29.9828 45.2818 29.8268 45.3467 29.7117 45.4617C29.5967 45.5768 29.5318 45.7328 29.5312 45.8955V48.6045C29.5312 48.9412 29.8069 49.2188 30.1652 49.2188H32.8742ZM36.0695 49.2188H38.7804C38.8604 49.2193 38.9396 49.2037 39.0133 49.1728C39.087 49.1419 39.1536 49.0963 39.2092 49.0389C39.2648 48.9815 39.3082 48.9134 39.3367 48.8387C39.3652 48.764 39.3782 48.6844 39.375 48.6045V45.8955C39.374 45.7329 39.3089 45.5773 39.1939 45.4623C39.079 45.3473 38.9233 45.2823 38.7607 45.2812H36.0498C35.7151 45.2812 35.4375 45.5569 35.4375 45.8955V48.6045C35.4375 48.9412 35.7131 49.2188 36.0714 49.2188H36.0695Z" fill="#041646"/>
</svg>
